Coordinates
version=1
nRows=13
nColumns=22
inDegrees=yes

Units are S.I. units (second, meters, Newtons, ...)
If the header above contains a line with 'inDegrees', this indicates whether rotational values are in degrees (yes) or radians (no).

endheader
time	pelvis_tilt	pelvis_list	pelvis_rotation	pelvis_tx	pelvis_ty	pelvis_tz	hip_flexion_r	hip_adduction_r	hip_rotation_r	knee_angle_r	ankle_angle_r	subtalar_angle_r	hip_flexion_l	hip_adduction_l	hip_rotation_l	knee_angle_l	ankle_angle_l	subtalar_angle_l	lumbar_extension	lumbar_bending	lumbar_rotation
      0.01000000	     -0.93059485	     -5.27666806	      0.23276891	      0.18903252	      1.02007231	      1.33884841	     -1.26566246	      3.00105386	     -3.29465310	    -10.08357764	      9.22540723	      2.38391986	     -3.79186887	     -8.28872050	    -15.57418556	     -6.95562313	     10.75798035	     -0.85028868	     -1.77833756	      1.25159034	     -0.88274255
      0.02000000	     -0.93210565	     -5.27431597	      0.21348779	      0.18883448	      1.02009635	      1.33886221	     -1.22433183	      2.99862182	     -3.27085502	    -10.13319024	      9.21312064	      2.38599862	     -3.78570390	     -8.28305847	    -15.58858341	     -6.94961689	     10.75030912	     -0.84844626	     -1.85162131	      1.28078490	     -0.95456844
      0.03000000	     -0.93837873	     -5.27169369	      0.19038451	      0.18859463	      1.02011835	      1.33888355	     -1.16430742	      2.99601888	     -3.24571928	    -10.20388078	      9.21280443	      2.38415914	     -3.77499308	     -8.27640354	    -15.60641286	     -6.93904518	     10.73727893	     -0.84697864	     -1.93189440	      1.31288800	     -1.02774398
      0.04000000	     -0.96261181	     -5.26465092	      0.15993192	      0.18831138	      1.02011385	      1.33891265	     -1.06505407	      2.98692592	     -3.23265848	    -10.30826349	      9.24910894	      2.37293123	     -3.73899752	     -8.26584941	    -15.63660651	     -6.93735613	     10.70853760	     -0.84774684	     -2.00044868	      1.34366476	     -1.08397701
      0.05000000	     -0.98102786	     -5.25626651	      0.14213022	      0.18804284	      1.02012634	      1.33894125	     -0.98776206	      2.97950806	     -3.20014047	    -10.38312603	      9.24756715	      2.36976547	     -3.71962851	     -8.25232456	    -15.65151204	     -6.91054781	     10.70067511	     -0.84814389	     -2.07221804	      1.36909896	     -1.16626987
      0.06000000	     -1.05882094	     -5.23005944	      0.11938815	      0.18773720	      1.02004895	      1.33895621	     -0.81995823	      2.94944120	     -3.19535536	    -10.50799805	      9.30958113	      2.35193953	     -3.62460553	     -8.21990759	    -15.67309524	     -6.90180678	     10.67008550	     -0.85740721	     -2.07441877	      1.37652248	     -1.22160625
      0.07000000	     -1.07457616	     -5.22606194	      0.11163897	      0.18746457	      1.02006801	      1.33898297	     -0.74536645	      2.94772009	     -3.17369677	    -10.58180709	      9.30555778	      2.35079399	     -3.60600696	     -8.21238507	    -15.67899274	     -6.87509910	     10.65677103	     -0.85653095	     -2.14494277	      1.40176048	     -1.28339699
      0.08000000	     -1.15132956	     -5.20087297	      0.10836966	      0.18719365	      1.01999285	      1.33898066	     -0.58806264	      2.91956733	     -3.18515285	    -10.69351677	      9.36015138	      2.34307832	     -3.51695038	     -8.18101466	    -15.68184331	     -6.85234690	     10.62006817	     -0.86080930	     -2.13486888	      1.40278537	     -1.32931220
      0.09000000	     -1.19884023	     -5.18869218	      0.11003865	      0.18695750	      1.01996031	      1.33898896	     -0.47833053	      2.90770603	     -3.18946758	    -10.77669142	      9.38185003	      2.34288501	     -3.46524157	     -8.16441728	    -15.68058336	     -6.82245998	     10.59515795	     -0.86203967	     -2.15094733	      1.41414182	     -1.37057081
      0.10000000	     -1.21493801	     -5.18431624	      0.11488424	      0.18676370	      1.01997123	      1.33899954	     -0.41871363	      2.90604205	     -3.18254758	    -10.83237606	      9.38081558	      2.34277326	     -3.45348068	     -8.15607963	    -15.68400417	     -6.78590460	     10.58270824	     -0.85959035	     -2.19593754	      1.43181517	     -1.40603598
      0.11000000	     -1.26904371	     -5.16436562	      0.12786307	      0.18658460	      1.01991976	      1.33900437	     -0.30772514	      2.88546311	     -3.21351559	    -10.91421510	      9.41948045	      2.33999570	     -3.40015407	     -8.13148992	    -15.66727827	     -6.74643985	     10.53545572	     -0.85334707	     -2.18741030	      1.42430042	     -1.42330161
      0.12000000	     -1.30884445	     -5.14995954	      0.14341696	      0.18643623	      1.01988249	      1.33899847	     -0.22510449	      2.87085297	     -3.23156506	    -10.97460319	      9.43690076	      2.33984273	     -3.35970876	     -8.11375136	    -15.65073202	     -6.71643083	     10.51439635	     -0.85098164	     -2.18922857	      1.42638135	     -1.44694334
      0.13000000	     -1.32203488	     -5.14410951	      0.16118657	      0.18632840	      1.01987787	      1.33900314	     -0.18799311	      2.86818528	     -3.22798493	    -11.00654681	      9.43711613	      2.33951245	     -3.34943715	     -8.10678292	    -15.65101964	     -6.68818850	     10.50938659	     -0.84937226	     -2.21515855	      1.43592062	     -1.47039680
